<svg xmlns="http://www.w3.org/2000/svg"  viewBox="0 0 64 64" width="256px" height="256px"><g data-name="04-thank you"><path fill="#8e9e1b" d="M43.7,11.98c2.54-.93,4.85,4.38,4.85,4.38l-3.89.81c-1.68.84.1,7.37.22,7.81-.21-.33-3.76-6.04-5.45-5.2l-3.07,2.67s-2.44-5.6.17-6.9a23.661,23.661,0,0,0-5.69,3.97,15.592,15.592,0,0,0,.07-3.33A3.982,3.982,0,0,0,32.5,13a3.921,3.921,0,0,0-.58-2.06l.06-.04a4,4,0,1,0,5.66-5.27c1.4-1.98,5.03-4.46,5.27-4.62-.04.13-.91,2.75-.51,3.66.38.88,4.32-1.02,4.73-1.22C44.12,6.13,50,9.96,50,9.96a18.375,18.375,0,0,0-3.02.72A20.918,20.918,0,0,0,43.7,11.98Z"/><path fill="#f92814" d="M37.64,5.63a4,4,0,1,1-5.66,5.27A4,4,0,0,1,35.5,5,3.947,3.947,0,0,1,37.64,5.63Z"/><path fill="#f92814" d="M30.91,16.19A3.974,3.974,0,0,1,28.5,17a3.757,3.757,0,0,1-1.54-.32,3.993,3.993,0,1,1,4.96-5.74A3.921,3.921,0,0,1,32.5,13,3.982,3.982,0,0,1,30.91,16.19Z"/><path fill="#f92814" d="M28.5,1a4,4,0,1,1-4,4,4.013,4.013,0,0,1,4-4Z"/><path fill="#6e7a17" d="M24.5,5a4,4,0,0,0,4,4,3.993,3.993,0,0,0-1.54,7.68C25.66,18.43,25,23,25,23s-1-7-3-7l-4,1s0-6,3-6a24.914,24.914,0,0,0-3.02.19A21.657,21.657,0,0,0,14,12s4-6,0-7c0,0,5,0,5-1s-2-3-2-3,6.04.67,8,2l.03.02A3.935,3.935,0,0,0,24.5,5Z"/><path fill="#7c4026" d="M46.909,10.7a20.654,20.654,0,0,0-2.486.938,26,26,0,1,1-25.867,1.74C18.974,12.114,19.708,11,21,11a24.35,24.35,0,0,0-2.682.158A28,28,0,1,0,46.909,10.7Z"/><path fill="#bc6829" d="M28.5,9a3.968,3.968,0,0,1,1.254.209c.578-.072,1.16-.13,1.749-.163,0-.016,0-.03,0-.046a3.958,3.958,0,0,1,.541-1.976l-.11,0A3.982,3.982,0,0,1,28.5,9Z"/><path fill="#ffbc36" d="M31.92,10.94l.06-.04A4.03,4.03,0,0,1,31.5,9.046c-.589.033-1.171.091-1.749.163A3.966,3.966,0,0,1,31.92,10.94Z"/><path fill="#ffbc36" d="M48.55,16.36l-3.89.81c-1.68.84.1,7.37.22,7.81-.21-.33-3.76-6.04-5.45-5.2l-3.07,2.67s-2.44-5.6.17-6.9a23.661,23.661,0,0,0-5.69,3.97,15.592,15.592,0,0,0,.07-3.33A3.974,3.974,0,0,1,28.5,17a3.757,3.757,0,0,1-1.54-.32C25.66,18.43,25,23,25,23s-1-7-3-7l-4,1a13.376,13.376,0,0,1,.556-3.619,26,26,0,1,0,25.867-1.74c-.238.108-.478.218-.723.339C46.24,11.05,48.55,16.36,48.55,16.36Z"/><path fill="#db0404" d="M36.5,11a3.961,3.961,0,0,1-3.929-4.708A3.979,3.979,0,0,0,31.5,9a4,4,0,0,0,7.929.708A3.976,3.976,0,0,1,36.5,11Z"/><path fill="#db0404" d="M29.5,15a3.961,3.961,0,0,1-3.929-4.708A3.979,3.979,0,0,0,24.5,13a4,4,0,0,0,7.929.708A3.976,3.976,0,0,1,29.5,15Z"/><path fill="#db0404" d="M29.5,7a4,4,0,0,1-4-4,4.036,4.036,0,0,1,.071-.708A3.979,3.979,0,0,0,24.5,5a4,4,0,0,0,7.929.708A3.976,3.976,0,0,1,29.5,7Z"/><path fill="#7c8a1a" d="M24.6,5.867,19,4c0,1-5,1-5,1s4.312.006,12.123,3.2A3.988,3.988,0,0,1,24.6,5.867Z"/><path fill="#8e9e1b" d="M24.5,5a3.935,3.935,0,0,1,.53-1.98L25,3c-1.96-1.33-8-2-8-2s2,2,2,3l5.6,1.867A4,4,0,0,1,24.5,5Z"/><path fill="#6e7a17" d="M24.687,14.209,22,16c2,0,3,7,3,7s.66-4.57,1.96-6.32A3.956,3.956,0,0,1,24.687,14.209Z"/><path fill="#7c8a1a" d="M24.5,13a3.988,3.988,0,0,1,2.936-3.839L21,11c-3,0-3,6-3,6l4-1,2.687-1.791A4,4,0,0,1,24.5,13Z"/><path fill="#6e7a17" d="M27.728,9.078,28,9l-.153-.066A3.966,3.966,0,0,1,26.123,8.2C18.312,5.006,14,5,14,5c4,1,0,7,0,7a21.657,21.657,0,0,1,3.98-.81A24.914,24.914,0,0,1,21,11l6.436-1.839C27.534,9.134,27.627,9.1,27.728,9.078Z"/><path fill="#a5b820" d="M50,9.96s-5.88-3.83-2.87-6.51c-.41.2-4.35,2.1-4.73,1.22-.01-.022-.015-.05-.024-.074L39.055,7.18a3.825,3.825,0,0,1,.3,2.82H49.735C49.9,9.973,50,9.96,50,9.96Z"/><path fill="#7c8a1a" d="M35.5,13a4.005,4.005,0,0,1-3.52-2.1l-.06.04A3.921,3.921,0,0,1,32.5,13a3.982,3.982,0,0,1-1.59,3.19,15.592,15.592,0,0,1-.07,3.33,23.661,23.661,0,0,1,5.69-3.97c-2.61,1.3-.17,6.9-.17,6.9l3.07-2.67a.87.87,0,0,1,.485-.063L37.7,12.337A3.982,3.982,0,0,1,35.5,13Z"/><path fill="#8e9e1b" d="M42.91,1.01c-.24.16-3.87,2.64-5.27,4.62a3.958,3.958,0,0,1,1.415,1.55L42.376,4.6C42.045,3.63,42.871,1.137,42.91,1.01Z"/><path fill="#8e9e1b" d="M37.7,12.337l2.214,7.38c1.8.193,4.773,4.962,4.965,5.263-.021-.076-.093-.344-.187-.725a83.257,83.257,0,0,0-6.367-12.424A4.01,4.01,0,0,1,37.7,12.337Z"/><path fill="#8e9e1b" d="M49.735,10H39.359a4.037,4.037,0,0,1-.181.571,35.788,35.788,0,0,1,9.254,5.814l.118-.025s-2.31-5.31-4.85-4.38a20.918,20.918,0,0,1,3.28-1.3A20.028,20.028,0,0,1,49.735,10Z"/><path fill="#a5b820" d="M38.326,11.831a83.257,83.257,0,0,1,6.367,12.424c-.448-1.817-1.422-6.391-.033-7.085l3.772-.785a35.788,35.788,0,0,0-9.254-5.814A4,4,0,0,1,38.326,11.831Z"/><path fill="#5a6313" d="M26.122,8.2A3.988,3.988,0,0,1,24.6,5.868h0l-2.083-.7a3.958,3.958,0,0,0,.566,1.88c.947.33,1.956.706,3.04,1.15Z"/><path fill="#6e7a17" d="M22.5,5c0,.059.015.114.017.172l2.083.7h0c-.013-.059-.02-.119-.031-.178A3.831,3.831,0,0,1,25.03,3.02L25,3a6.46,6.46,0,0,0-1.461-.677,3.88,3.88,0,0,0-.509.7A3.935,3.935,0,0,0,22.5,5Z"/><path fill="#4d5410" d="M26.281,16.311c-.053-.035-.1-.071-.155-.108a3.971,3.971,0,0,1-1.036-1.128c-.03-.049-.058-.1-.086-.15a3.957,3.957,0,0,1-.317-.716l-1.514,1.009A3.941,3.941,0,0,0,24.96,16.68,3.757,3.757,0,0,0,26.5,17c.09,0,.176-.016.264-.022.064-.105.129-.207.2-.3A3.871,3.871,0,0,1,26.281,16.311Z"/><path fill="#5a6313" d="M23.6,10.257a3.978,3.978,0,0,0-.428,4.961l1.514-1.009a3.894,3.894,0,0,1-.112-1.953c.016-.086.043-.168.065-.253a3.97,3.97,0,0,1,.135-.434c.04-.1.086-.2.134-.3s.108-.21.169-.311a3.891,3.891,0,0,1,.214-.326c.048-.064.1-.124.153-.185a3.971,3.971,0,0,1,1.991-1.285h0Z"/><path fill="#4d5410" d="M27.847,8.934h0c-.118-.019-.233-.046-.347-.075A3.985,3.985,0,0,1,26.123,8.2h0c-1.084-.444-2.093-.82-3.04-1.15A3.982,3.982,0,0,0,26.5,9a3.979,3.979,0,0,0-2.9,1.257l3.835-1.1h0c.029-.008.057-.02.087-.027.068-.017.134-.042.2-.056L28,9Z"/><path fill="#5a6313" d="M37.136,12.643c-.076.034-.154.061-.232.09a3.789,3.789,0,0,1-.461.143c-.075.018-.148.038-.224.052A3.965,3.965,0,0,1,35.5,13a4.005,4.005,0,0,1-3.52-2.1l-.06.04A3.921,3.921,0,0,1,32.5,13a4.07,4.07,0,0,1-.046.577,3.962,3.962,0,0,0,5.73.371L37.7,12.337A4.152,4.152,0,0,1,37.136,12.643Z"/><path fill="#6e7a17" d="M37.7,12.336h0l.483,1.611a4,4,0,0,0,.821-1.057c-.225-.361-.451-.718-.679-1.06A4,4,0,0,1,37.7,12.336Z"/><path fill="#7c8a1a" d="M39.481,10.7a3.976,3.976,0,0,0-.109-.7h-.014a3.9,3.9,0,0,1-.18.57,4,4,0,0,1-.852,1.26c.228.342.454.7.679,1.06A3.965,3.965,0,0,0,39.5,11C39.5,10.9,39.488,10.8,39.481,10.7Z"/><ellipse cx="37" cy="8" fill="#f6fafd" rx=".825" ry="1.148" transform="rotate(-45.02 37 8)"/><ellipse cx="30" cy="12" fill="#f6fafd" rx=".825" ry="1.148" transform="rotate(-45.02 30 12)"/><ellipse cx="30" cy="3" fill="#f6fafd" rx=".825" ry="1.148" transform="rotate(-45.02 30 3)"/><path fill="#d4850f" d="M27.84,22.52a23.661,23.661,0,0,1,5.69-3.97c-2.61,1.3-.17,6.9-.17,6.9l3.07-2.67c1.69-.84,5.24,4.87,5.45,5.2-.11-.405-1.618-5.95-.553-7.493-.706-.612-1.387-.961-1.9-.707l-3.07,2.67s-2.44-5.6.17-6.9a23.661,23.661,0,0,0-5.69,3.97,15.592,15.592,0,0,0,.07-3.33A3.974,3.974,0,0,1,28.5,17a3.757,3.757,0,0,1-1.54-.32,10.541,10.541,0,0,0-1.34,3.31,3.972,3.972,0,0,0,2.29-.8A15.592,15.592,0,0,1,27.84,22.52Z"/><path fill="#d4850f" d="M44.441,17.346a3.4,3.4,0,0,0-.487,2.346l1.6-.332A15.272,15.272,0,0,0,44.441,17.346Z"/><path fill="#d4850f" d="M22,16l-4,1s0-.03,0-.08V16.9c0-.051,0-.12.006-.206l0-.05c0-.09.009-.192.017-.309l.005-.069c.008-.121.02-.252.033-.394l.008-.08c.015-.153.035-.313.057-.482l.008-.06a10.752,10.752,0,0,1,.417-1.864c-.3.2-.591.417-.883.63.112,0,.214-.011.327-.011a2,2,0,0,0-.379.048c-.545.4-1.08.817-1.591,1.258A11.344,11.344,0,0,0,15,20l4-1c2,0,3,7,3,7s.66-4.57,1.96-6.32a3.568,3.568,0,0,0,.371.12C23.832,17.955,23.057,16,22,16Z"/><path fill="#c47952" d="M45.788,11.083c-.038.014-.075.027-.112.042-.4.152-.821.322-1.253.516h0A26,26,0,0,1,53.68,50.753q1.074.237,2.164.429A27.985,27.985,0,0,0,46.909,10.7h0C46.554,10.81,46.177,10.939,45.788,11.083Z"/><path fill="#ffda45" d="M44.423,11.641c-.238.108-.478.218-.723.339,2.54-.93,4.85,4.38,4.85,4.38l-3.89.81a.853.853,0,0,0-.219.176A15.272,15.272,0,0,1,45.55,19.36l-1.6.332a27.945,27.945,0,0,0,.926,5.288c-.161-.253-2.289-3.667-4.034-4.865a5.538,5.538,0,0,1,.481.372c-1.065,1.543.443,7.088.553,7.493-.21-.33-3.76-6.04-5.45-5.2l-3.07,2.67s-2.44-5.6.17-6.9a23.661,23.661,0,0,0-5.69,3.97,15.592,15.592,0,0,0,.07-3.33,3.972,3.972,0,0,1-2.29.8c.073-.28.155-.564.241-.845A29.606,29.606,0,0,0,25,23a30.791,30.791,0,0,0-.669-3.2,3.568,3.568,0,0,1-.371-.12C22.66,21.43,22,26,22,26s-1-7-3-7l-2.193.548A52.025,52.025,0,0,0,53.68,50.753a26,26,0,0,0-9.257-39.112Z"/><ellipse cx="51.003" cy="21.987" fill="#f6fafd" rx="1.642" ry="2.286" transform="rotate(-45.02 51.003 21.986)"/><ellipse cx="53.746" cy="25.5" fill="#f6fafd" rx=".413" ry=".574" transform="rotate(-45.02 53.745 25.5)"/><ellipse cx="50" cy="48" fill="#f6fafd" rx=".825" ry="1.148" transform="rotate(-45.02 50 48)"/><polygon points="14 39 14 29 17 29 17 27 9 27 9 29 12 29 12 39 14 39"/><polygon points="18 27 18 39 20 39 20 34 24 34 24 35 26 35 26 27 24 27 24 32 20 32 20 27 18 27"/><rect width="2" height="2" x="24" y="37"/><path d="M36,39V37.97a16.99,16.99,0,0,0-.508-4.123l-1.522-6.09A1,1,0,0,0,33,27H31a1,1,0,0,0-.97.757l-1.522,6.09A16.99,16.99,0,0,0,28,37.97V39h2V37.97c0-.325.038-.647.059-.97h3.882c.021.323.059.645.059.97V39Zm-5.677-4c.045-.222.069-.448.124-.668L31.781,29h.438l1.334,5.332c.055.22.079.446.124.668Z"/><rect width="2" height="2" x="44" y="27"/><path d="M44,36.9c0,.1-.176.12-.2.019l-1.647-8.232A2.1,2.1,0,0,0,38,29.1V39h2V29.1c0-.1.175-.12.2-.019l1.647,8.232A2.1,2.1,0,0,0,46,36.9V31H44Z"/><path d="M56,29.764V27H54v2.764a.994.994,0,0,1-.553.894L50,32.382V27H48V39h2V34.618l1-.5,2.447,1.224a.994.994,0,0,1,.553.894V39h2V36.236a2.984,2.984,0,0,0-1.658-2.683L53.236,33l1.106-.553A2.984,2.984,0,0,0,56,29.764Z"/><path d="M24,55V50a3,3,0,0,0,3-3V43H25v4a1,1,0,0,1-1,1H22a1,1,0,0,1-1-1V43H19v4a3,3,0,0,0,3,3v5Z"/><path d="M37,50V46a3,3,0,0,0-3-3H32a3,3,0,0,0-3,3v6a3,3,0,0,0,3,3h2a3,3,0,0,0,3-3H35a1,1,0,0,1-1,1H32a1,1,0,0,1-1-1V46a1,1,0,0,1,1-1h2a1,1,0,0,1,1,1v4Z"/><rect width="2" height="2" x="45" y="43"/><path d="M42,55h2a3,3,0,0,0,3-3V47H45v5a1,1,0,0,1-1,1H42a1,1,0,0,1-1-1V43H39v9A3,3,0,0,0,42,55Z"/><path d="M17.707,12.769A13.445,13.445,0,0,0,17,17a1,1,0,0,0,1.242.97l3.779-.945c.637.4,1.584,3.294,1.989,6.117a1,1,0,0,0,1.98,0,21.078,21.078,0,0,1,1.424-5.269A4.919,4.919,0,0,0,28.5,18a4.99,4.99,0,0,0,4.945-4.454A4.942,4.942,0,0,0,35.5,14a5,5,0,0,0,3.551-8.514A21.156,21.156,0,0,1,41.33,3.42a3.46,3.46,0,0,0,.15,1.647,1.35,1.35,0,0,0,.791.727,5.086,5.086,0,0,0,3-.445c0,.021,0,.042,0,.062A6.69,6.69,0,0,0,47.7,9.417a24.706,24.706,0,0,0-4.642,1.753l-.006,0a1,1,0,0,0,.894,1.789.8.8,0,0,1,.688-.029,6.336,6.336,0,0,1,2.433,2.712l-2.611.542a1.028,1.028,0,0,0-.243.084C43.007,16.873,42.8,18.7,43,20.7c-1.32-1.444-2.778-2.439-4.012-1.821a1,1,0,0,0-.21.14L36.8,20.739c-.5-1.645-.829-3.793.18-4.3a1,1,0,1,0-.894-1.789,24.342,24.342,0,0,0-5.954,4.17l1.424,1.405a20.4,20.4,0,0,1,2.767-2.222,13.5,13.5,0,0,0,1.116,4.842,1,1,0,0,0,1.574.356l2.878-2.5c.754.186,2.673,2.407,4.144,4.818a1,1,0,0,0,1.816-.793c-.823-2.906-1.162-6.017-.775-6.627l3.675-.763a1,1,0,0,0,.714-1.378,12.783,12.783,0,0,0-2.849-4.118c.057-.02.108-.035.163-.053a27,27,0,0,1,6.475,5.355l1.5-1.323a29.09,29.09,0,0,0-5.363-4.743c.452-.091.725-.129.734-.13a1,1,0,0,0,.422-1.83c-.817-.533-3.172-2.381-3.273-3.845a1.261,1.261,0,0,1,.539-1.092,1,1,0,0,0-1.1-1.649A17.353,17.353,0,0,1,43.3,3.86a11.532,11.532,0,0,1,.572-2.539A1,1,0,0,0,42.363.17a29.694,29.694,0,0,0-4.993,4.2,4.893,4.893,0,0,0-3.925.084,4.959,4.959,0,0,0-8.7-2.722A31.914,31.914,0,0,0,17.109.006a1,1,0,0,0-.816,1.7,10.928,10.928,0,0,1,1.559,1.941A18.231,18.231,0,0,1,14,4a1,1,0,0,0-.242,1.97c.655.164.841.465.923.677.465,1.2-.819,3.753-1.514,4.8a1,1,0,0,0,.039,1.161.989.989,0,0,0,.94.37,29.3,29.3,0,0,0-3.36,3.379l1.531,1.287A27.126,27.126,0,0,1,17.707,12.769ZM28.5,16a3,3,0,1,1,3-3A3,3,0,0,1,28.5,16Zm10-7a3,3,0,1,1-3-3A3,3,0,0,1,38.5,9Zm-10-7a3,3,0,1,1-3,3A3,3,0,0,1,28.5,2ZM16.546,5.927l-.013-.034C20,5.554,20,4.5,20,4a3.346,3.346,0,0,0-.6-1.642,22.047,22.047,0,0,1,4.361,1.121A4.919,4.919,0,0,0,23.5,5a4.982,4.982,0,0,0,2.031,4,4.96,4.96,0,0,0,.059,8.048,12.05,12.05,0,0,0-.575,1.441C24.373,16.583,23.415,15,22,15a.984.984,0,0,0-.242.03l-2.676.669c.192-1.671.751-3.7,1.918-3.7a1,1,0,0,0,0-2,26.747,26.747,0,0,0-5.042.488C16.567,9.117,17.088,7.329,16.546,5.927Z"/><path d="M6,35a26.83,26.83,0,0,1,4.839-15.427L9.2,18.428a29.019,29.019,0,0,0-.69,32.107L10.2,49.462A26.917,26.917,0,0,1,6,35Z"/><path d="M11.544,51.393,9.956,52.607c.411.539.847,1.068,1.292,1.573l1.5-1.323C12.333,52.386,11.928,51.894,11.544,51.393Z"/><path d="M57.859,20.059,56.146,21.09A27,27,0,0,1,13.713,53.9l-1.428,1.4A29,29,0,0,0,57.859,20.059Z"/><path d="M55.178,19.6l1.642-1.143q-.495-.711-1.031-1.391L54.219,18.3Q54.717,18.934,55.178,19.6Z"/></g></svg>