<svg xmlns="http://www.w3.org/2000/svg" xmlns:xlink="http://www.w3.org/1999/xlink" width="700" zoomAndPan="magnify" viewBox="0 0 525 149.999998" height="200" preserveAspectRatio="xMidYMid meet" version="1.0"><defs><g/></defs><g fill="#ffec4e" fill-opacity="1"><g transform="translate(3.199935, 118.217698)"><g><path d="M 90.875 -10.453125 C 86.132812 -6.378906 80.820312 -3.25 74.9375 -1.0625 C 69.0625 1.113281 62.972656 2.203125 56.671875 2.203125 C 51.835938 2.203125 47.179688 1.570312 42.703125 0.3125 C 38.222656 -0.9375 34.023438 -2.710938 30.109375 -5.015625 C 26.203125 -7.316406 22.632812 -10.078125 19.40625 -13.296875 C 16.1875 -16.515625 13.425781 -20.078125 11.125 -23.984375 C 8.820312 -27.898438 7.039062 -32.097656 5.78125 -36.578125 C 4.53125 -41.054688 3.90625 -45.71875 3.90625 -50.5625 C 3.90625 -55.394531 4.53125 -60.0625 5.78125 -64.5625 C 7.039062 -69.0625 8.820312 -73.265625 11.125 -77.171875 C 13.425781 -81.085938 16.1875 -84.65625 19.40625 -87.875 C 22.632812 -91.101562 26.203125 -93.867188 30.109375 -96.171875 C 34.023438 -98.472656 38.222656 -100.25 42.703125 -101.5 C 47.179688 -102.757812 51.835938 -103.390625 56.671875 -103.390625 C 62.972656 -103.390625 69.0625 -102.3125 74.9375 -100.15625 C 80.820312 -98 86.132812 -94.859375 90.875 -90.734375 L 80.0625 -72.953125 C 77.070312 -76.179688 73.539062 -78.660156 69.46875 -80.390625 C 65.394531 -82.117188 61.128906 -82.984375 56.671875 -82.984375 C 52.171875 -82.984375 47.953125 -82.128906 44.015625 -80.421875 C 40.078125 -78.710938 36.640625 -76.398438 33.703125 -73.484375 C 30.765625 -70.566406 28.441406 -67.128906 26.734375 -63.171875 C 25.023438 -59.210938 24.171875 -55.007812 24.171875 -50.5625 C 24.171875 -46.101562 25.023438 -41.914062 26.734375 -38 C 28.441406 -34.09375 30.765625 -30.671875 33.703125 -27.734375 C 36.640625 -24.796875 40.078125 -22.472656 44.015625 -20.765625 C 47.953125 -19.054688 52.171875 -18.203125 56.671875 -18.203125 C 61.128906 -18.203125 65.394531 -19.066406 69.46875 -20.796875 C 73.539062 -22.523438 77.070312 -25.003906 80.0625 -28.234375 Z M 90.875 -10.453125 "/></g></g></g><g fill="#ffec4e" fill-opacity="1"><g transform="translate(96.39353, 118.217698)"><g/></g></g><g fill="#ffec4e" fill-opacity="1"><g transform="translate(137.132542, 118.217698)"><g/></g></g><g fill="#ffec4e" fill-opacity="1"><g transform="translate(177.842775, 118.217698)"><g><path d="M 104.234375 0 L 84.90625 0 L 84.90625 -48.359375 C 84.90625 -49.679688 84.65625 -50.929688 84.15625 -52.109375 C 83.65625 -53.296875 82.953125 -54.335938 82.046875 -55.234375 C 81.148438 -56.140625 80.109375 -56.84375 78.921875 -57.34375 C 77.742188 -57.84375 76.488281 -58.09375 75.15625 -58.09375 C 73.832031 -58.09375 72.585938 -57.84375 71.421875 -57.34375 C 70.265625 -56.84375 69.242188 -56.140625 68.359375 -55.234375 C 67.484375 -54.335938 66.796875 -53.296875 66.296875 -52.109375 C 65.804688 -50.929688 65.5625 -49.679688 65.5625 -48.359375 L 65.5625 0 L 46.140625 0 L 46.140625 -48.359375 C 46.140625 -49.679688 45.890625 -50.929688 45.390625 -52.109375 C 44.898438 -53.296875 44.203125 -54.335938 43.296875 -55.234375 C 42.398438 -56.140625 41.359375 -56.84375 40.171875 -57.34375 C 38.984375 -57.84375 37.726562 -58.09375 36.40625 -58.09375 C 35.082031 -58.09375 33.835938 -57.84375 32.671875 -57.34375 C 31.515625 -56.84375 30.492188 -56.140625 29.609375 -55.234375 C 28.734375 -54.335938 28.046875 -53.296875 27.546875 -52.109375 C 27.054688 -50.929688 26.8125 -49.679688 26.8125 -48.359375 L 26.8125 0 L 7.390625 0 L 7.390625 -76.15625 L 12.09375 -76.15625 L 17.34375 -70.328125 C 20.050781 -72.597656 23.023438 -74.359375 26.265625 -75.609375 C 29.515625 -76.867188 32.894531 -77.5 36.40625 -77.5 C 39.957031 -77.5 43.425781 -76.835938 46.8125 -75.515625 C 50.207031 -74.191406 53.1875 -71.894531 55.75 -68.625 C 56.9375 -70.226562 58.285156 -71.597656 59.796875 -72.734375 C 61.316406 -73.878906 62.914062 -74.804688 64.59375 -75.515625 C 66.28125 -76.222656 68.023438 -76.726562 69.828125 -77.03125 C 71.628906 -77.34375 73.40625 -77.5 75.15625 -77.5 C 79.1875 -77.5 82.96875 -76.738281 86.5 -75.21875 C 90.03125 -73.707031 93.109375 -71.632812 95.734375 -69 C 98.367188 -66.375 100.441406 -63.28125 101.953125 -59.71875 C 103.472656 -56.164062 104.234375 -52.378906 104.234375 -48.359375 Z M 104.234375 0 "/></g></g></g><g fill="#000000" fill-opacity="1"><g transform="translate(288.816012, 118.217698)"><g><path d="M 79.359375 0 L 9.453125 0 L 9.453125 -101.96875 L 79.359375 -101.96875 L 79.359375 -81.5625 L 29.859375 -81.5625 L 29.859375 -61.15625 L 63.359375 -61.15625 L 63.359375 -40.75 L 29.859375 -40.75 L 29.859375 -20.40625 L 79.359375 -20.40625 Z M 79.359375 0 "/></g></g></g><g fill="#000000" fill-opacity="1"><g transform="translate(372.995751, 118.217698)"><g><path d="M 26.8125 0 L 7.390625 0 L 7.390625 -76.15625 L 12.09375 -76.15625 L 18.484375 -67.125 C 21.617188 -69.96875 25.175781 -72.160156 29.15625 -73.703125 C 33.132812 -75.242188 37.257812 -76.015625 41.53125 -76.015625 L 58.65625 -76.015625 L 58.65625 -56.671875 L 41.53125 -56.671875 C 39.488281 -56.671875 37.566406 -56.289062 35.765625 -55.53125 C 33.960938 -54.769531 32.394531 -53.726562 31.0625 -52.40625 C 29.738281 -51.082031 28.695312 -49.519531 27.9375 -47.71875 C 27.1875 -45.914062 26.8125 -43.992188 26.8125 -41.953125 Z M 26.8125 0 "/></g></g></g><g fill="#000000" fill-opacity="1"><g transform="translate(433.286646, 118.217698)"><g><path d="M 81.125 0 L 76.4375 0 L 68.90625 -10.453125 C 67.050781 -8.796875 65.09375 -7.242188 63.03125 -5.796875 C 60.96875 -4.347656 58.796875 -3.085938 56.515625 -2.015625 C 54.242188 -0.953125 51.910156 -0.113281 49.515625 0.5 C 47.128906 1.113281 44.703125 1.421875 42.234375 1.421875 C 36.878906 1.421875 31.84375 0.519531 27.125 -1.28125 C 22.40625 -3.082031 18.28125 -5.703125 14.75 -9.140625 C 11.21875 -12.578125 8.429688 -16.78125 6.390625 -21.75 C 4.359375 -26.726562 3.34375 -32.394531 3.34375 -38.75 C 3.34375 -44.675781 4.359375 -50.113281 6.390625 -55.0625 C 8.429688 -60.019531 11.21875 -64.273438 14.75 -67.828125 C 18.28125 -71.390625 22.40625 -74.148438 27.125 -76.109375 C 31.84375 -78.078125 36.878906 -79.0625 42.234375 -79.0625 C 44.703125 -79.0625 47.144531 -78.753906 49.5625 -78.140625 C 51.976562 -77.523438 54.320312 -76.671875 56.59375 -75.578125 C 58.875 -74.492188 61.046875 -73.21875 63.109375 -71.75 C 65.171875 -70.28125 67.101562 -68.691406 68.90625 -66.984375 L 76.4375 -76.015625 L 81.125 -76.015625 Z M 61.578125 -38.75 C 61.578125 -41.40625 61.066406 -43.976562 60.046875 -46.46875 C 59.023438 -48.957031 57.640625 -51.160156 55.890625 -53.078125 C 54.140625 -54.992188 52.085938 -56.53125 49.734375 -57.6875 C 47.390625 -58.851562 44.890625 -59.4375 42.234375 -59.4375 C 39.578125 -59.4375 37.078125 -58.988281 34.734375 -58.09375 C 32.390625 -57.195312 30.351562 -55.867188 28.625 -54.109375 C 26.894531 -52.359375 25.53125 -50.191406 24.53125 -47.609375 C 23.53125 -45.023438 23.03125 -42.070312 23.03125 -38.75 C 23.03125 -35.4375 23.53125 -32.488281 24.53125 -29.90625 C 25.53125 -27.320312 26.894531 -25.148438 28.625 -23.390625 C 30.351562 -21.640625 32.390625 -20.3125 34.734375 -19.40625 C 37.078125 -18.507812 39.578125 -18.0625 42.234375 -18.0625 C 44.890625 -18.0625 47.390625 -18.640625 49.734375 -19.796875 C 52.085938 -20.960938 54.140625 -22.503906 55.890625 -24.421875 C 57.640625 -26.347656 59.023438 -28.550781 60.046875 -31.03125 C 61.066406 -33.519531 61.578125 -36.09375 61.578125 -38.75 Z M 61.578125 -38.75 "/></g></g></g><g fill="#ffec4e" fill-opacity="1"><g transform="translate(93.532948, 35.958244)"><g><path d="M 0 82.015625 L 0 77.265625 L 10.5625 69.640625 C 8.882812 67.773438 7.316406 65.800781 5.859375 63.71875 C 4.398438 61.632812 3.128906 59.441406 2.046875 57.140625 C 0.972656 54.835938 0.125 52.476562 -0.5 50.0625 C -1.125 47.644531 -1.4375 45.1875 -1.4375 42.6875 C -1.4375 37.28125 -0.523438 32.191406 1.296875 27.421875 C 3.117188 22.648438 5.765625 18.476562 9.234375 14.90625 C 12.710938 11.34375 16.96875 8.53125 22 6.46875 C 27.03125 4.40625 32.753906 3.375 39.171875 3.375 C 45.160156 3.375 50.65625 4.40625 55.65625 6.46875 C 60.664062 8.53125 64.96875 11.34375 68.5625 14.90625 C 72.164062 18.476562 74.957031 22.648438 76.9375 27.421875 C 78.925781 32.191406 79.921875 37.28125 79.921875 42.6875 C 79.921875 45.1875 79.609375 47.65625 78.984375 50.09375 C 78.367188 52.539062 77.507812 54.910156 76.40625 57.203125 C 75.300781 59.503906 74.003906 61.695312 72.515625 63.78125 C 71.035156 65.875 69.429688 67.828125 67.703125 69.640625 L 76.84375 77.265625 L 76.84375 82.015625 Z M 39.171875 62.25 C 41.859375 62.25 44.457031 61.734375 46.96875 60.703125 C 49.488281 59.671875 51.71875 58.265625 53.65625 56.484375 C 55.59375 54.710938 57.148438 52.640625 58.328125 50.265625 C 59.503906 47.898438 60.09375 45.375 60.09375 42.6875 C 60.09375 40.007812 59.632812 37.484375 58.71875 35.109375 C 57.8125 32.734375 56.46875 30.671875 54.6875 28.921875 C 52.914062 27.179688 50.722656 25.804688 48.109375 24.796875 C 45.503906 23.785156 42.523438 23.28125 39.171875 23.28125 C 35.816406 23.28125 32.832031 23.785156 30.21875 24.796875 C 27.613281 25.804688 25.421875 27.179688 23.640625 28.921875 C 21.867188 30.671875 20.523438 32.734375 19.609375 35.109375 C 18.703125 37.484375 18.25 40.007812 18.25 42.6875 C 18.25 45.375 18.835938 47.898438 20.015625 50.265625 C 21.191406 52.640625 22.75 54.710938 24.6875 56.484375 C 26.625 58.265625 28.847656 59.671875 31.359375 60.703125 C 33.878906 61.734375 36.484375 62.25 39.171875 62.25 Z M 39.171875 62.25 "/></g></g></g></svg>